<svg xmlns="http://www.w3.org/2000/svg" xmlns:xlink="http://www.w3.org/1999/xlink" version="1.1" id="Layer_1" x="0px" y="0px" width="100%" viewBox="0 0 1024 1024" enable-background="new 0 0 1024 1024" xml:space="preserve">
<path fill="#ffffff" opacity="1.000000" stroke="none" d=" M222.449188,526.637573   C224.883011,547.488464 230.567535,567.467834 230.332260,588.207397   C230.282364,592.605896 229.196182,596.746826 227.280441,600.674622   C226.529877,602.213440 225.455704,603.701904 223.591751,603.651917   C221.440277,603.594299 221.264801,601.554260 220.822922,600.020752   C214.878189,579.390503 212.226334,558.124268 208.597443,537.040649   C206.425934,524.424255 204.110870,511.841675 204.330383,498.983551   C204.636093,481.073181 203.177963,463.026764 208.491516,445.488556   C212.453598,432.411072 219.293976,420.841583 226.837311,409.606995   C246.979645,379.608307 263.571259,347.845978 275.128174,313.504944   C277.988739,305.004791 281.134552,296.622040 283.388306,287.917145   C286.997253,273.977966 294.778778,262.016510 302.537445,250.221405   C320.425873,223.026505 335.896698,194.539032 350.179352,165.323120   C361.380066,142.411438 374.704895,120.678040 389.324158,99.783447   C395.076843,91.561401 401.985138,84.309357 410.671234,78.998268   C416.238647,75.594086 422.209381,73.635796 428.747375,75.093575   C438.048645,77.167496 442.698975,83.182411 444.173096,95.225929   C446.120453,111.135643 446.163605,127.121048 443.257812,142.874710   C440.439758,158.152542 434.513153,172.470917 427.320801,186.229050   C419.149902,201.859024 411.049408,217.527695 402.690155,233.056747   C395.983459,245.515930 388.931793,257.789307 382.048340,270.153595   C381.493591,271.150024 381.056488,272.211945 381.050537,273.538727   C387.714050,263.778625 394.406311,254.037949 401.033417,244.253143   C408.321564,233.492325 414.847015,222.268723 421.240356,210.959122   C429.693512,196.005707 436.340668,180.196823 443.412292,164.591843   C454.972931,139.080917 466.648712,113.598457 484.746490,91.878075   C491.486847,83.788475 498.261169,75.369499 509.797333,73.139526   C520.877380,70.997726 529.541260,75.603508 533.429199,86.241837   C536.634338,95.011620 536.374023,104.223610 537.281250,113.267616   C539.943237,139.803864 532.185486,163.979095 521.361511,187.877914   C504.584045,224.921661 485.221100,260.650116 467.433868,297.171967   C465.473938,301.196289 462.978790,304.996002 460.429138,308.690979   C447.745850,327.071655 439.851410,347.849304 430.623596,367.956635   C427.394196,374.993439 423.631622,381.833160 422.484283,389.781006   C425.915009,383.172516 429.560150,376.664764 432.723755,369.930786   C436.969513,360.893524 440.813690,351.668274 444.883362,342.547424   C450.707306,329.494965 459.610168,318.422302 467.891815,306.954773   C479.516785,290.857788 489.889832,273.999481 498.710205,256.204773   C513.204590,226.962952 527.341492,197.505692 546.345581,170.805542   C552.886047,161.616348 559.250671,152.147675 568.648315,145.390549   C574.237061,141.372177 580.523071,139.113495 587.291504,139.113510   C598.376648,139.113541 604.214417,144.539658 605.057556,156.960236   C605.776245,167.547424 606.353882,178.141556 607.117737,188.734909   C608.250000,204.439743 603.012878,219.222855 597.476257,233.659668   C589.166199,255.328094 576.993530,275.122528 566.640076,295.802368   C545.836670,337.354980 521.488342,377.040527 501.755066,419.153473   C493.276184,437.248169 485.492889,455.632202 481.184265,475.221985   C478.680939,486.603821 478.441315,498.276520 478.358398,509.910919   C478.340790,512.378052 478.355835,514.845520 478.355835,517.711243   C480.411102,516.776245 480.344086,515.083740 480.779602,513.606018   C487.632202,490.354034 490.781464,466.103363 498.808197,443.226654   C507.677124,417.949677 517.828552,393.340729 534.624207,371.693573   C549.005676,353.158051 564.409546,335.840546 582.061584,320.504913   C589.825562,313.759735 597.582581,306.883911 608.173340,304.516663   C624.099182,300.956909 632.662964,309.239136 631.846069,325.689148   C630.776062,347.236298 621.670349,366.145264 614.270447,385.648895   C606.299866,406.656738 593.814514,425.261475 581.998657,444.176636   C568.512146,465.766113 561.674438,489.510803 558.308472,514.467529   C556.714905,526.283020 555.136353,538.100586 553.518433,549.912781   C552.549988,556.983154 547.064880,553.900635 543.284607,554.244934   C539.075317,554.628235 539.618286,551.256409 539.680786,548.681946   C540.527954,513.752625 546.880615,479.978088 561.521179,448.073883   C566.889832,436.374695 575.446472,426.573273 582.052002,415.589722   C584.699280,411.187805 587.464661,406.856903 590.491699,401.986145   C588.056519,401.844452 586.736755,403.123444 585.206482,403.788849   C572.149475,409.466919 564.595520,407.002106 559.957458,394.197418   C556.828430,385.558868 557.822449,376.839325 559.921570,368.166748   C560.618530,365.287140 561.497925,362.451691 561.720825,359.210724   C558.845642,362.739410 555.868896,366.190613 553.111816,369.809296   C534.616821,394.084412 519.329651,420.265198 510.055054,449.363312   C505.095337,464.923828 502.187622,481.239288 499.520874,497.406555   C495.292206,523.043335 481.986115,543.823914 466.052612,563.305481   C462.527405,567.615723 458.044861,571.323364 452.528442,573.315125   C449.190826,574.520325 445.423157,575.094177 443.351990,572.076965   C441.397888,569.230164 444.024109,566.304504 446.097687,564.218994   C450.121948,560.171509 453.370789,555.539673 456.781433,551.026306   C460.598206,545.975525 462.471649,540.301697 462.749878,533.893372   C463.586121,514.632324 464.094299,495.327423 465.878540,476.146393   C467.366913,460.145477 473.182892,445.073792 479.761047,430.502350   C495.463470,395.719482 513.309143,362.015503 531.654236,328.560547   C541.983459,309.723816 551.435913,290.407288 561.705383,271.536591   C569.271362,257.633698 576.651978,243.647171 583.740967,229.498718   C586.884827,223.224182 588.169617,216.229126 591.429688,209.944183   C587.294922,216.597794 583.519287,223.503937 578.050720,229.115891   C570.968384,236.383865 562.769958,241.729935 551.996338,239.510696   C542.093567,237.470795 536.383789,230.341141 535.686890,220.092010   C535.518799,217.619598 535.311401,215.188629 534.493469,212.807907   C533.113586,213.236252 532.756592,214.393448 532.360352,215.460495   C522.821655,241.147812 509.959656,265.253357 496.829102,289.193634   C491.798920,298.364868 486.068329,307.203705 479.610962,315.514984   C468.318970,330.048920 458.917053,345.670441 451.635132,362.640411   C438.023987,394.360229 418.155609,422.014923 395.281281,447.629120   C393.853973,449.227325 392.128540,450.598511 390.392670,451.872040   C388.227264,453.460632 385.796173,453.984955 383.442535,452.274597   C381.211456,450.653320 380.416565,448.282623 380.954254,445.634338   C381.714417,441.890015 382.337311,438.032654 384.359955,434.725250   C394.953461,417.403168 400.641571,397.907715 408.899109,379.552246   C422.427368,349.480591 436.022797,319.506500 452.369720,290.755676   C466.185120,266.457306 477.951477,240.999619 490.840027,216.166779   C500.204346,198.124161 509.321594,179.970245 517.349792,161.292206   C519.357483,156.621262 520.821289,151.716522 522.326050,146.816406   C517.363281,154.910004 512.893005,163.363708 505.000092,169.082092   C492.372986,178.230347 471.442047,177.721603 467.463593,156.314911   C467.036377,154.016144 467.213318,151.336197 464.959045,148.758316   C463.495331,152.108292 462.140656,155.064880 460.900482,158.068741   C445.295807,195.865158 427.782104,232.643723 403.931274,266.101624   C392.065613,282.746765 383.451874,301.077911 375.913696,320.031586   C367.827209,340.363831 357.022949,359.332947 345.154327,377.693909   C338.193512,388.462433 331.372711,399.323578 324.271301,409.998291   C320.460876,415.726044 315.733398,420.675720 309.553375,423.982727   C307.108551,425.290985 304.557953,426.117798 302.127563,423.959076   C299.577881,421.694397 299.065308,418.889954 300.363800,415.796814   C300.938751,414.427307 301.551208,412.989197 302.489075,411.868927   C318.463135,392.788361 326.741150,369.865082 334.575256,346.824371   C339.605499,332.030060 343.885101,316.978363 349.256348,302.287170   C355.582581,284.984009 365.437805,269.458130 373.994324,253.289902   C389.728119,223.559799 407.102203,194.715118 422.062012,164.563049   C423.597412,161.468430 425.534851,158.502228 425.725830,153.400009   C423.278015,156.359238 421.569977,158.409302 419.877960,160.472519   C415.843842,165.391785 411.492706,169.962769 405.955322,173.242966   C396.099396,179.081375 384.494995,177.202209 376.977997,168.684235   C372.990997,164.166290 373.750519,158.402954 372.360229,152.890717   C367.557861,162.803482 362.768585,172.566315 358.085358,182.379776   C345.579834,208.584763 331.027527,233.628128 314.960724,257.781738   C305.299683,272.305420 297.931824,287.625824 293.173584,304.574463   C283.911835,337.564880 270.107483,368.769012 252.455139,398.181641   C246.459259,408.172089 239.873016,417.806427 233.668762,427.674042   C224.607010,442.086426 219.636902,457.683197 219.887802,474.874481   C220.137955,492.013062 219.841415,509.167938 222.449188,526.637573  M479.875946,155.411179   C483.291199,161.993683 488.198547,163.708466 494.673218,160.418533   C499.053528,158.192810 502.792725,155.019760 505.296814,150.833710   C512.468811,138.844254 519.504089,126.657387 522.072021,112.741768   C523.379944,105.653870 524.016602,98.168953 520.499634,91.254547   C517.844971,86.035355 514.746460,84.999214 509.605469,87.367561   C505.789459,89.125526 502.181824,91.255188 499.519196,94.530128   C485.282471,112.040649 475.036194,130.911255 479.875946,155.411179  M427.837128,89.774956   C425.339142,87.273582 422.605896,87.454834 419.628540,88.883240   C415.524384,90.852196 412.000732,93.537910 408.849823,96.805183   C402.931732,102.941917 397.703979,109.745140 393.555573,117.048462   C387.176819,128.278290 381.623596,140.023529 384.328430,153.768539   C386.020721,162.368210 393.249420,166.226028 401.067749,162.291168   C403.320831,161.157211 405.249146,159.566391 406.834839,157.605042   C420.379822,140.851349 429.477631,122.144897 431.531769,100.453201   C431.879120,96.785446 430.955841,93.184486 427.837128,89.774956  M577.617554,208.151855   C585.113953,195.073730 591.469116,181.625000 591.681702,166.097549   C591.748596,161.213669 591.194519,156.285126 586.458191,153.984482   C581.572937,151.611465 578.010742,155.437546 574.623596,158.352066   C563.775696,167.686172 556.596252,179.652878 550.969116,192.549988   C547.744141,199.941391 546.931763,207.989807 547.473999,216.006577   C547.778198,220.503662 548.869873,225.280396 553.693298,227.176971   C558.280884,228.980835 562.170654,226.375931 565.509338,223.551208   C570.374817,219.434860 574.285034,214.460587 577.617554,208.151855  M586.740906,389.278595   C589.762695,386.902649 592.540161,384.268311 594.945435,381.269135   C606.737915,366.565033 613.212463,349.319427 618.440063,331.527130   C619.117249,329.222382 618.856689,326.527496 618.553650,324.072113   C617.815247,318.088776 612.357605,315.606750 607.384827,318.887817   C603.506042,321.447052 599.629028,323.928223 596.362671,327.395599   C586.096191,338.293854 579.548279,351.277283 574.824707,365.243622   C572.387573,372.449738 569.828369,379.741608 570.371277,387.582764   C570.815491,393.997467 574.496643,396.174408 580.181702,393.314789   C582.255920,392.271454 584.173706,390.917175 586.740906,389.278595  M356.569641,330.127289   C363.788727,315.053864 368.467773,298.990204 374.762878,283.536987   C371.489227,289.138092 368.404785,294.820587 365.625702,300.648712   C361.108276,310.122375 358.738708,320.360718 355.439331,330.267944   C355.336609,330.576416 355.188812,331.365295 356.074738,331.010071   C356.203705,330.958405 356.270416,330.751404 356.569641,330.127289  z"/>
<path fill="#ffffff" opacity="1.000000" stroke="none" d=" M700.930542,634.998047   C668.780579,656.168518 634.144775,670.949890 597.621460,681.526672   C596.031982,681.987000 594.391907,682.368469 592.749878,682.535706   C582.153015,683.614624 573.036743,688.121765 564.688538,694.470093   C561.482178,696.908386 557.971191,698.877747 554.181396,700.171021   C542.873169,704.029968 533.934998,711.086548 525.323120,719.259521   C513.369080,730.604614 501.136322,741.562866 490.252655,754.042480   C476.568939,769.732727 466.510712,787.287659 459.537231,806.794617   C452.505890,826.463501 450.434082,846.494873 454.518341,867.060730   C455.289398,870.943237 457.769012,876.478333 460.940338,881.080078   C459.079315,869.174500 464.373138,859.815613 467.736938,850.076233   C472.110504,837.413147 482.605896,829.500854 491.997620,820.801147   C521.781860,793.211487 558.604126,780.738403 597.062988,771.729492   C628.601562,764.341614 659.069397,754.056274 687.924438,739.083740   C720.366638,722.249756 747.802002,699.304016 771.239624,671.529114   C804.852722,631.695679 828.194946,586.411865 840.921204,535.865234   C848.527161,505.655701 850.954102,474.694031 848.397339,443.780365   C844.414307,395.623199 831.721924,349.718658 808.895447,306.770752   C792.279480,275.507812 772.520325,246.648819 746.978455,222.008911   C716.348755,192.460861 681.887085,168.611694 642.244873,152.619537   C639.002625,151.311584 635.736023,149.981247 632.959656,147.800903   C630.225830,145.653976 629.057922,142.854355 630.189026,139.398697   C631.336609,135.893112 633.846497,134.596649 637.470337,134.606491   C640.590332,134.614975 643.359192,135.630341 646.119446,136.775131   C675.834534,149.099319 703.295166,165.384598 728.692078,185.010651   C748.114746,200.019958 765.152954,217.527802 780.964172,236.378677   C805.626160,265.781769 824.408325,298.635529 839.238708,333.758514   C848.694641,356.152985 854.507690,379.811554 859.265564,403.630554   C864.025757,427.460785 866.493408,451.615204 865.142944,475.899963   C863.049133,513.551941 855.944153,550.193848 842.064087,585.489258   C827.376099,622.839478 806.039124,655.951233 779.990723,686.198486   C764.914917,703.704468 747.450378,718.634705 728.859375,732.261902   C695.578003,756.657104 657.833679,771.258850 618.507507,782.364502   C595.630188,788.825012 572.107178,793.165039 550.085754,802.443848   C525.172180,812.941284 502.824463,827.224121 486.607056,849.391235   C477.694397,861.573608 471.794128,875.430786 467.912872,890.010559   C466.408234,895.662476 467.814758,901.316040 471.028625,906.225159   C481.102631,921.612854 494.897003,931.982605 512.803284,936.673950   C515.538147,937.390442 518.289307,938.073486 520.968323,938.965881   C523.117126,939.681580 525.094360,941.019897 524.827881,943.559509   C524.545654,946.249451 523.601501,948.766846 520.302856,949.367859   C513.512878,950.604980 507.097900,948.758362 500.752167,946.882385   C484.075989,941.952393 471.512543,931.598877 461.672089,917.412537   C452.481873,904.163757 444.618256,890.379272 441.489166,874.358948   C433.289459,832.377991 442.787109,794.444885 466.736359,759.323242   C480.669403,738.890442 500.038666,725.136719 520.148010,711.992859   C525.470764,708.513855 530.236816,704.359619 535.310120,700.584473   C536.779236,699.491211 537.834656,698.015076 538.204651,696.357666   C537.448914,695.210815 536.602539,695.323975 535.809021,695.549011   C496.115723,706.806763 462.437653,727.287781 438.741486,761.636841   C429.494934,775.040344 423.673035,790.382202 422.050110,807.103455   C421.534149,812.419739 422.838196,817.695007 421.488617,822.934692   C420.963165,824.974731 420.422546,826.941040 418.350128,827.687622   C416.025269,828.525024 414.656158,826.594910 413.323151,825.207336   C406.843689,818.462952 406.882629,810.075378 408.164734,801.741821   C414.929321,757.772705 440.313232,726.748596 477.014038,703.817627   C502.518463,687.882263 530.076538,677.085938 559.467224,670.559021   C589.004639,663.999451 618.244202,656.452759 646.247375,644.464783   C673.455627,632.817139 697.771973,616.669617 721.305054,599.124329   C736.178284,588.035400 750.107483,575.765991 761.139771,560.789917   C775.800354,540.888489 786.901917,519.028198 790.246948,494.290649   C791.632019,484.047852 789.990173,473.377045 789.535278,462.909149   C789.022583,451.111023 788.042908,439.329224 787.716431,427.527863   C787.060486,403.819824 783.262817,380.735931 775.221802,358.370880   C774.019043,355.025543 771.054077,351.058594 775.307617,348.043915   C778.302185,345.921570 785.861694,349.514832 787.915894,353.741516   C791.268127,360.639282 793.950928,367.846527 795.980408,375.223450   C801.596985,395.639374 805.703613,416.340302 804.164124,437.654816   C803.057861,452.972107 804.580139,468.223663 804.520142,483.514404   C804.403564,513.197571 795.813049,540.214783 780.406128,565.112732   C776.289856,571.764709 769.668701,576.859741 764.235840,582.705200   C745.522583,602.839539 724.035767,619.614441 700.930542,634.998047  z"/>
<path fill="#ffffff" opacity="1.000000" stroke="none" d=" M541.809509,580.993164   C520.088013,587.480286 497.960205,590.841919 476.906311,598.286438   C448.977692,608.161682 423.040131,621.315918 402.054230,642.855896   C381.138367,664.323914 367.812653,689.742310 362.390991,719.205200   C358.657928,739.491882 358.848572,759.705994 363.642365,779.910339   C365.285675,786.836243 365.421356,794.119934 365.552063,801.505737   C359.451141,796.785767 354.417786,791.518494 350.837189,784.919922   C345.611328,775.289551 344.086121,764.726196 343.775177,754.093079   C342.054779,695.260864 366.597198,648.807983 411.884277,612.701416   C435.044189,594.236389 461.874695,583.195435 490.677399,576.722107   C506.235962,573.225403 521.184021,567.412537 536.897278,564.449280   C552.890625,561.433167 568.731812,557.830933 584.347473,553.126587   C623.505310,541.329895 656.959167,520.788452 685.014160,490.816010   C710.444702,463.647156 725.707336,431.823090 731.388977,395.442566   C734.314148,376.711914 733.362671,357.607849 734.090088,338.666290   C734.795959,320.287079 729.951233,303.487091 722.152771,287.224548   C721.104004,285.037537 719.025208,282.400818 721.237183,280.408051   C723.212830,278.628204 726.394104,279.275146 728.867615,280.291687   C732.300049,281.702301 735.294495,283.992645 737.399841,287.037018   C745.103210,298.175964 751.407349,310.506012 750.973938,323.977325   C750.276550,345.653137 751.155029,367.518463 747.267151,389.000519   C742.571716,414.944366 735.829163,440.335266 723.029480,463.622894   C713.572876,480.828156 701.238647,495.933258 686.652344,509.058777   C673.532593,520.864563 660.164673,532.344543 645.273743,542.033020   C635.292297,548.527222 624.884277,553.962646 613.986938,558.565857   C590.795654,568.362305 566.708923,575.309265 541.809509,580.993164  z"/>
<path fill="#ffffff" opacity="1.000000" stroke="none" d=" M455.170044,654.099060   C480.330994,638.667358 507.084473,627.990234 534.956848,619.593811   C557.073059,612.931335 579.477783,607.267883 601.390381,599.883911   C622.827515,592.660156 642.078674,581.922607 659.331909,567.285828   C682.573608,547.568665 703.606812,525.639038 721.049744,500.808044   C741.153442,472.189392 754.148254,440.156036 759.751831,405.389771   C760.224426,402.457520 760.222961,402.457275 762.293884,399.417572   C765.563599,400.880219 766.000916,404.138397 766.008362,406.835327   C766.050476,422.096100 766.565735,437.445526 760.467163,451.990601   C759.321228,454.723724 758.583191,457.680023 758.039124,460.604431   C755.608337,473.671478 748.408569,484.617432 742.255005,495.979462   C728.049194,522.209778 707.816528,543.693176 687.093201,564.716492   C671.850830,580.179382 655.909241,595.156738 636.214294,604.593140   C616.271973,614.148132 595.237305,621.163330 573.633484,626.432434   C539.093811,634.856506 505.565155,646.413330 473.965424,662.788879   C450.158661,675.125854 429.465912,691.776978 414.476593,714.278625   C401.711578,733.441223 394.077118,754.728882 391.185699,777.809570   C388.239075,801.330994 394.366516,823.290344 401.128143,845.221130   C403.347961,852.420898 408.674072,858.144653 411.760162,864.983887   C412.612762,866.873352 414.192139,868.669373 413.037720,870.994385   C411.116455,872.010254 409.759033,870.842651 408.465210,869.877991   C389.502441,855.739441 379.819733,836.589966 376.483917,813.356750   C373.547607,792.906128 374.848816,772.843994 379.788483,753.054626   C390.091309,711.779297 414.361755,680.506958 449.859436,657.598450   C451.538696,656.514709 453.198822,655.401184 455.170044,654.099060  z"/>
<path fill="#ffffff" opacity="1.000000" stroke="none" d=" M160.033875,466.716400   C159.983093,437.387695 163.324524,408.942139 170.264832,380.914703   C176.908035,354.087067 186.570114,328.513916 201.286316,304.993683   C203.063309,302.153595 204.928680,299.369781 207.726074,297.441437   C210.801498,295.321381 214.034653,295.381683 217.060242,297.514038   C220.192291,299.721466 218.234985,302.427063 217.213684,304.663605   C210.648529,319.040741 203.265717,333.034882 197.566147,347.819031   C188.808914,370.534515 182.765686,393.895142 179.191864,417.993805   C175.708405,441.483154 175.731247,465.130951 177.650818,488.532257   C182.530365,548.018738 201.423904,603.096191 232.759857,654.003479   C251.380859,684.254517 274.322845,710.577148 301.388214,733.441101   C305.218964,736.677124 309.197388,739.673035 313.605530,742.076721   C315.894379,743.324646 317.745575,745.014465 318.162018,747.687256   C318.693024,751.095459 318.475769,754.676941 315.625061,756.882019   C312.935364,758.962524 309.741821,757.542480 307.212250,755.999329   C296.658264,749.560791 287.118561,741.731140 277.801849,733.663696   C241.801407,702.490356 217.564514,662.822083 196.922104,620.674377   C186.506577,599.407959 178.403427,577.216553 172.283463,554.307983   C167.343414,535.816101 165.307312,516.854126 162.576492,497.988159   C161.094437,487.749390 160.873550,477.456329 160.033875,466.716400  z"/>
<path fill="#ffffff" opacity="1.000000" stroke="none" d=" M589.871521,724.716553   C609.977600,717.508362 629.735352,710.522095 648.761108,701.582642   C671.666321,690.820435 690.935608,675.084839 709.945740,658.758911   C735.896179,636.472717 756.218567,609.610474 774.935669,581.320007   C777.186340,577.918152 778.282471,573.729126 781.730469,570.708008   C784.101562,573.674744 783.300110,576.647583 782.760071,579.463684   C779.904419,594.355408 772.150818,607.104675 764.186279,619.552551   C744.395020,650.484558 719.290955,676.579224 689.459045,697.928894   C675.068115,708.228088 658.978760,715.532532 642.632385,722.392212   C619.443298,732.123291 595.599731,740.117981 572.392822,749.771057   C546.839966,760.400024 522.973206,773.623596 502.739349,792.920776   C496.705841,798.674927 488.845642,801.742554 480.590393,804.318604   C479.617523,801.317017 481.246124,799.447510 482.434204,797.605652   C494.677795,778.623779 510.993805,763.985840 530.180786,752.219604   C548.901733,740.739197 569.254456,732.936035 589.871521,724.716553  z"/>
<path fill="#ffffff" opacity="1.000000" stroke="none" d=" M756.315613,534.297485   C754.357544,536.576843 753.117615,539.039246 750.808044,540.508057   C748.558472,541.938660 746.267212,541.493774 744.265808,540.080688   C742.718689,538.988281 743.331299,537.390747 744.066406,536.025940   C753.128357,519.201477 760.562317,501.479706 771.713074,485.807495   C772.574036,484.597351 773.469788,483.361298 774.569092,482.384521   C775.832642,481.261749 777.392090,481.343872 778.673218,482.441681   C780.077698,483.645264 780.371704,485.261322 779.749084,486.988678   C773.783936,503.539124 768.938477,520.644287 756.315613,534.297485  z"/>
<path fill="#ffffff" opacity="1.000000" stroke="none" d=" M316.174988,168.896042   C317.776093,168.277939 319.014008,167.791443 320.266541,167.346054   C322.746216,166.464249 325.261780,166.038589 327.022675,168.551880   C328.800110,171.088760 329.013306,173.956329 327.079651,176.460419   C325.365417,178.680313 323.434357,180.844131 321.226654,182.551102   C314.126587,188.040787 306.889801,193.356506 299.632202,198.638260   C296.397552,200.992310 293.010956,202.978882 289.757904,198.509293   C286.674835,194.273285 287.087036,189.409561 291.283234,186.115112   C299.126587,179.957245 306.951569,173.744659 316.174988,168.896042  z"/>
<path fill="#ffffff" opacity="1.000000" stroke="none" d=" M395.080627,309.862396   C395.824188,306.444000 396.531433,303.372681 397.537018,300.402374   C398.657715,297.092133 400.446320,294.248962 404.594849,294.722229   C409.329346,295.262360 414.267334,295.520691 417.301392,300.092957   C418.590729,302.036041 417.915131,303.979126 416.812134,305.696899   C412.538422,312.352692 402.337311,314.467163 395.080627,309.862396  z"/>
<path fill="#ffffff" opacity="1.000000" stroke="none" d=" M316.376038,282.733643   C319.962036,282.760681 323.112091,282.388977 326.171143,283.666870   C330.587677,285.511841 331.575928,287.923401 329.448486,292.282898   C326.420868,298.486969 317.190277,301.868896 310.933960,298.995575   C310.255585,298.683990 309.600250,297.976929 309.277740,297.291595   C307.094421,292.652557 310.933929,284.347198 316.376038,282.733643  z"/>
<path fill="#ffffff" opacity="1.000000" stroke="none" d=" M488.073914,352.111816   C491.250793,354.677094 490.916016,357.855072 489.770721,360.550049   C488.710938,363.043854 486.089508,364.328613 483.208069,364.294922   C480.393433,364.261932 477.483002,364.461304 474.793976,363.813782   C471.926605,363.123352 467.569977,363.672577 468.261871,358.323914   C469.019073,352.470581 472.261658,348.586151 476.991638,348.462097   C480.941772,348.358459 484.476166,349.755646 488.073914,352.111816  z"/>
</svg>